# xmcd CD database file
#
# Track frame offsets:
#	150
#	25012
#	42140
#	66206
#	87901
#	106570
#	128442
#	148144
#	173833
#	197142
#	214589
#	228580
#	242155
#
# Disc length: 3321 seconds
#
# Revision: 0
# Processed by: cddbd v1.5.1PL0 Copyright (c) Steve Scherf et al.
# Submitted via: CDex 1.51
#
DISCID=a90cf70d
DTITLE=James Taylor - Live at the Beacon Theatre Disc 2 (DVD Rip)
DYEAR=1998
DGENRE=Country
TTITLE0=I've Got To Stop Thinkin Bout That
TTITLE1=Handy Man
TTITLE2=You've Got a Friend
TTITLE3=Mexico
TTITLE4=Little More Time With You
TTITLE5=Line Em Up
TTITLE6=Up on the Roof
TTITLE7=Ananas
TTITLE8=Steamroller Blues
TTITLE9=Belfast to Boston
TTITLE10=Wandering
TTITLE11=Not Fade Away
TTITLE12=End Credit Roll
EXTD=YEAR: 1998
EXTT0=
EXTT1=
EXTT2=
EXTT3=
EXTT4=
EXTT5=
EXTT6=
EXTT7=
EXTT8=
EXTT9=
EXTT10=
EXTT11=
EXTT12=
PLAYORDER=
